<?xml version="1.0" encoding="UTF-8" standalone="no"?>
<!-- Created with Inkscape (http://www.inkscape.org/) -->

<svg
   width="100.11118"
   height="273.00458"
   viewBox="0 0 26.48775 72.232461"
   version="1.1"
   id="svg5"
   xml:space="preserve"
   xmlns="http://www.w3.org/2000/svg"
   xmlns:svg="http://www.w3.org/2000/svg"><defs
     id="defs2" /><g
     id="layer1"
     transform="translate(-22.417415,-22.786993)"><g
       transform="matrix(0.99993795,0,0,0.99993795,-11.304776,9.9549833)"
       id="g5825"
       style="fill:#ffffff;fill-opacity:1"><text
         transform="scale(0.26458)"
         font-family="'Montserrat ExtraBold'"
         font-size="40px"
         style="line-height:1.25;white-space:pre;shape-inside:url(#rect5170);fill:#ffffff;fill-opacity:1"
         xml:space="preserve"
         id="text5801" /><g
         transform="translate(1583.2,-627.61)"
         fill="#1a1a1a"
         id="g5823"
         style="fill:#ffffff;fill-opacity:1"><path
           d="m -1542.9,699.23 c -0.6097,0.85263 -1.666,1.3428 -2.7624,1.1528 -0.2826,-0.0485 -0.5245,-0.17251 -0.766,-0.29511 a 6.8923,6.8923 0 0 0 -2.9456,4.5196 6.8923,6.8923 0 0 0 5.6165,7.9713 6.8923,6.8923 0 0 0 7.9643,-5.5953 c -0.5436,0.0418 -1.0924,0.0476 -1.6521,-0.0492 -3.6213,-0.62835 -6.0596,-4.0841 -5.4547,-7.7039 z m 2.882,0.1615 c -0.037,0.0998 -0.088,0.17803 -0.1067,0.28154 -0.3695,2.1306 1.0256,4.1143 3.1563,4.4843 0.3685,0.0639 0.7232,0.0147 1.0755,-0.0221 a 6.8923,6.8923 0 0 0 -4.1263,-4.7449 z"
           style="fill:#ffffff;fill-opacity:1;paint-order:stroke fill markers"
           id="path5803" /><circle
           transform="rotate(9.8458)"
           cx="-1393.9"
           cy="952.71997"
           r="5.2979002"
           style="fill:#ffffff;fill-opacity:1;paint-order:stroke fill markers"
           id="circle5805" /><circle
           transform="rotate(9.8458)"
           cx="-1401.7"
           cy="943.02002"
           r="4.8993001"
           style="fill:#ffffff;fill-opacity:1;paint-order:stroke fill markers"
           id="circle5807" /><circle
           transform="rotate(9.8458)"
           cx="-1403.1"
           cy="951.58002"
           r="2.2086999"
           style="fill:#ffffff;fill-opacity:1;paint-order:stroke fill markers"
           id="circle5809" /><circle
           transform="rotate(9.8458)"
           cx="-1393.4"
           cy="933.16998"
           r="4.8993001"
           style="fill:#ffffff;fill-opacity:1;paint-order:stroke fill markers"
           id="circle5811" /><circle
           transform="rotate(9.8458)"
           cx="-1391.4"
           cy="918.02002"
           r="4.8993001"
           style="fill:#ffffff;fill-opacity:1;paint-order:stroke fill markers"
           id="circle5813" /><circle
           transform="rotate(9.8458)"
           cx="-1402.5"
           cy="924.33002"
           r="5.7448001"
           style="fill:#ffffff;fill-opacity:1;paint-order:stroke fill markers"
           id="circle5815" /><circle
           transform="rotate(9.8458)"
           cx="-1394.6"
           cy="906.85999"
           r="3.3532"
           style="fill:#ffffff;fill-opacity:1;paint-order:stroke fill markers"
           id="circle5817" /><circle
           transform="rotate(9.8458)"
           cx="-1400.6"
           cy="899.92999"
           r="2.2258"
           style="fill:#ffffff;fill-opacity:1;paint-order:stroke fill markers"
           id="circle5819" /><circle
           transform="rotate(9.8458)"
           cx="-1394.9"
           cy="893.65002"
           r="1.5211999"
           style="fill:#ffffff;fill-opacity:1;paint-order:stroke fill markers"
           id="circle5821" /></g></g></g></svg>
